<svg xmlns="http://www.w3.org/2000/svg" xmlns:xlink="http://www.w3.org/1999/xlink" width="250" zoomAndPan="magnify" viewBox="0 0 187.5 44.999999" height="60" preserveAspectRatio="xMidYMid meet" version="1.0"><defs><g/><clipPath id="id1"><path d="M 21.488281 4 L 56.738281 4 L 56.738281 37.585938 L 21.488281 37.585938 Z M 21.488281 4 " clip-rule="nonzero"/></clipPath><clipPath id="id2"><path d="M 30 0.0859375 L 48 0.0859375 L 48 10 L 30 10 Z M 30 0.0859375 " clip-rule="nonzero"/></clipPath></defs><g fill="#8c52ff" fill-opacity="1"><g transform="translate(58.985925, 37.00885)"><g><path d="M 5.640625 0.171875 C 4.078125 0.171875 2.863281 -0.242188 2 -1.078125 C 1.144531 -1.910156 0.71875 -3.09375 0.71875 -4.625 C 0.71875 -6.207031 1.113281 -7.421875 1.90625 -8.265625 C 2.707031 -9.109375 3.847656 -9.53125 5.328125 -9.53125 C 6.742188 -9.53125 7.835938 -9.160156 8.609375 -8.421875 C 9.378906 -7.691406 9.765625 -6.632812 9.765625 -5.25 L 9.765625 -3.8125 L 3.984375 -3.8125 C 4.003906 -3.289062 4.191406 -2.878906 4.546875 -2.578125 C 4.910156 -2.285156 5.40625 -2.140625 6.03125 -2.140625 C 6.59375 -2.140625 7.113281 -2.191406 7.59375 -2.296875 C 8.070312 -2.398438 8.585938 -2.582031 9.140625 -2.84375 L 9.140625 -0.515625 C 8.640625 -0.253906 8.117188 -0.078125 7.578125 0.015625 C 7.035156 0.117188 6.390625 0.171875 5.640625 0.171875 Z M 5.453125 -7.328125 C 5.066406 -7.328125 4.742188 -7.207031 4.484375 -6.96875 C 4.234375 -6.726562 4.085938 -6.351562 4.046875 -5.84375 L 6.828125 -5.84375 C 6.816406 -6.300781 6.6875 -6.660156 6.4375 -6.921875 C 6.195312 -7.191406 5.867188 -7.328125 5.453125 -7.328125 Z M 5.453125 -7.328125 "/></g></g></g><g fill="#8c52ff" fill-opacity="1"><g transform="translate(69.453663, 37.00885)"><g/></g></g><g fill="#8c52ff" fill-opacity="1"><g transform="translate(73.852428, 37.00885)"><g><path d="M 5.390625 0.171875 C 3.847656 0.171875 2.679688 -0.238281 1.890625 -1.0625 C 1.109375 -1.894531 0.71875 -3.085938 0.71875 -4.640625 C 0.71875 -6.191406 1.144531 -7.394531 2 -8.25 C 2.851562 -9.101562 4.066406 -9.53125 5.640625 -9.53125 C 6.722656 -9.53125 7.742188 -9.296875 8.703125 -8.828125 L 7.75 -6.4375 C 7.363281 -6.601562 7.003906 -6.738281 6.671875 -6.84375 C 6.335938 -6.945312 5.992188 -7 5.640625 -7 C 5.117188 -7 4.710938 -6.789062 4.421875 -6.375 C 4.140625 -5.96875 4 -5.394531 4 -4.65625 C 4 -3.15625 4.550781 -2.40625 5.65625 -2.40625 C 6.601562 -2.40625 7.515625 -2.679688 8.390625 -3.234375 L 8.390625 -0.65625 C 7.554688 -0.101562 6.554688 0.171875 5.390625 0.171875 Z M 5.390625 0.171875 "/></g></g></g><g fill="#8c52ff" fill-opacity="1"><g transform="translate(82.980693, 37.00885)"><g><path d="M 10.0625 -4.703125 C 10.0625 -3.171875 9.648438 -1.972656 8.828125 -1.109375 C 8.003906 -0.253906 6.851562 0.171875 5.375 0.171875 C 3.945312 0.171875 2.8125 -0.265625 1.96875 -1.140625 C 1.132812 -2.023438 0.71875 -3.210938 0.71875 -4.703125 C 0.71875 -6.234375 1.128906 -7.421875 1.953125 -8.265625 C 2.773438 -9.109375 3.929688 -9.53125 5.421875 -9.53125 C 6.335938 -9.53125 7.148438 -9.332031 7.859375 -8.9375 C 8.566406 -8.550781 9.109375 -7.992188 9.484375 -7.265625 C 9.867188 -6.535156 10.0625 -5.679688 10.0625 -4.703125 Z M 4 -4.703125 C 4 -3.898438 4.101562 -3.285156 4.3125 -2.859375 C 4.53125 -2.441406 4.894531 -2.234375 5.40625 -2.234375 C 5.90625 -2.234375 6.253906 -2.441406 6.453125 -2.859375 C 6.660156 -3.285156 6.765625 -3.898438 6.765625 -4.703125 C 6.765625 -5.503906 6.660156 -6.109375 6.453125 -6.515625 C 6.242188 -6.921875 5.890625 -7.125 5.390625 -7.125 C 4.890625 -7.125 4.53125 -6.921875 4.3125 -6.515625 C 4.101562 -6.109375 4 -5.503906 4 -4.703125 Z M 4 -4.703125 "/></g></g></g><g fill="#8c52ff" fill-opacity="1"><g transform="translate(93.770902, 37.00885)"><g><path d="M 12.625 0 L 12.625 -5.09375 C 12.625 -5.726562 12.535156 -6.203125 12.359375 -6.515625 C 12.179688 -6.835938 11.90625 -7 11.53125 -7 C 11.039062 -7 10.675781 -6.785156 10.4375 -6.359375 C 10.207031 -5.929688 10.09375 -5.265625 10.09375 -4.359375 L 10.09375 0 L 6.859375 0 L 6.859375 -5.09375 C 6.859375 -5.726562 6.773438 -6.203125 6.609375 -6.515625 C 6.441406 -6.835938 6.175781 -7 5.8125 -7 C 5.300781 -7 4.925781 -6.769531 4.6875 -6.3125 C 4.457031 -5.863281 4.34375 -5.128906 4.34375 -4.109375 L 4.34375 0 L 1.109375 0 L 1.109375 -9.375 L 3.5625 -9.375 L 3.96875 -8.21875 L 4.15625 -8.21875 C 4.40625 -8.644531 4.765625 -8.96875 5.234375 -9.1875 C 5.703125 -9.414062 6.238281 -9.53125 6.84375 -9.53125 C 8.1875 -9.53125 9.132812 -9.117188 9.6875 -8.296875 L 9.9375 -8.296875 C 10.207031 -8.679688 10.578125 -8.984375 11.046875 -9.203125 C 11.515625 -9.421875 12.035156 -9.53125 12.609375 -9.53125 C 13.710938 -9.53125 14.53125 -9.242188 15.0625 -8.671875 C 15.59375 -8.109375 15.859375 -7.25 15.859375 -6.09375 L 15.859375 0 Z M 12.625 0 "/></g></g></g><g fill="#8c52ff" fill-opacity="1"><g transform="translate(110.704495, 37.00885)"><g><path d="M 12.625 0 L 12.625 -5.09375 C 12.625 -5.726562 12.535156 -6.203125 12.359375 -6.515625 C 12.179688 -6.835938 11.90625 -7 11.53125 -7 C 11.039062 -7 10.675781 -6.785156 10.4375 -6.359375 C 10.207031 -5.929688 10.09375 -5.265625 10.09375 -4.359375 L 10.09375 0 L 6.859375 0 L 6.859375 -5.09375 C 6.859375 -5.726562 6.773438 -6.203125 6.609375 -6.515625 C 6.441406 -6.835938 6.175781 -7 5.8125 -7 C 5.300781 -7 4.925781 -6.769531 4.6875 -6.3125 C 4.457031 -5.863281 4.34375 -5.128906 4.34375 -4.109375 L 4.34375 0 L 1.109375 0 L 1.109375 -9.375 L 3.5625 -9.375 L 3.96875 -8.21875 L 4.15625 -8.21875 C 4.40625 -8.644531 4.765625 -8.96875 5.234375 -9.1875 C 5.703125 -9.414062 6.238281 -9.53125 6.84375 -9.53125 C 8.1875 -9.53125 9.132812 -9.117188 9.6875 -8.296875 L 9.9375 -8.296875 C 10.207031 -8.679688 10.578125 -8.984375 11.046875 -9.203125 C 11.515625 -9.421875 12.035156 -9.53125 12.609375 -9.53125 C 13.710938 -9.53125 14.53125 -9.242188 15.0625 -8.671875 C 15.59375 -8.109375 15.859375 -7.25 15.859375 -6.09375 L 15.859375 0 Z M 12.625 0 "/></g></g></g><g fill="#8c52ff" fill-opacity="1"><g transform="translate(127.638087, 37.00885)"><g><path d="M 5.640625 0.171875 C 4.078125 0.171875 2.863281 -0.242188 2 -1.078125 C 1.144531 -1.910156 0.71875 -3.09375 0.71875 -4.625 C 0.71875 -6.207031 1.113281 -7.421875 1.90625 -8.265625 C 2.707031 -9.109375 3.847656 -9.53125 5.328125 -9.53125 C 6.742188 -9.53125 7.835938 -9.160156 8.609375 -8.421875 C 9.378906 -7.691406 9.765625 -6.632812 9.765625 -5.25 L 9.765625 -3.8125 L 3.984375 -3.8125 C 4.003906 -3.289062 4.191406 -2.878906 4.546875 -2.578125 C 4.910156 -2.285156 5.40625 -2.140625 6.03125 -2.140625 C 6.59375 -2.140625 7.113281 -2.191406 7.59375 -2.296875 C 8.070312 -2.398438 8.585938 -2.582031 9.140625 -2.84375 L 9.140625 -0.515625 C 8.640625 -0.253906 8.117188 -0.078125 7.578125 0.015625 C 7.035156 0.117188 6.390625 0.171875 5.640625 0.171875 Z M 5.453125 -7.328125 C 5.066406 -7.328125 4.742188 -7.207031 4.484375 -6.96875 C 4.234375 -6.726562 4.085938 -6.351562 4.046875 -5.84375 L 6.828125 -5.84375 C 6.816406 -6.300781 6.6875 -6.660156 6.4375 -6.921875 C 6.195312 -7.191406 5.867188 -7.328125 5.453125 -7.328125 Z M 5.453125 -7.328125 "/></g></g></g><g fill="#8c52ff" fill-opacity="1"><g transform="translate(138.105825, 37.00885)"><g><path d="M 6.765625 -9.53125 C 7.046875 -9.53125 7.316406 -9.507812 7.578125 -9.46875 L 7.75 -9.4375 L 7.46875 -6.390625 C 7.207031 -6.453125 6.84375 -6.484375 6.375 -6.484375 C 5.664062 -6.484375 5.148438 -6.320312 4.828125 -6 C 4.503906 -5.675781 4.34375 -5.210938 4.34375 -4.609375 L 4.34375 0 L 1.109375 0 L 1.109375 -9.375 L 3.515625 -9.375 L 4.03125 -7.875 L 4.1875 -7.875 C 4.457031 -8.375 4.832031 -8.773438 5.3125 -9.078125 C 5.789062 -9.378906 6.273438 -9.53125 6.765625 -9.53125 Z M 6.765625 -9.53125 "/></g></g></g><g fill="#8c52ff" fill-opacity="1"><g transform="translate(146.051721, 37.00885)"><g><path d="M 5.390625 0.171875 C 3.847656 0.171875 2.679688 -0.238281 1.890625 -1.0625 C 1.109375 -1.894531 0.71875 -3.085938 0.71875 -4.640625 C 0.71875 -6.191406 1.144531 -7.394531 2 -8.25 C 2.851562 -9.101562 4.066406 -9.53125 5.640625 -9.53125 C 6.722656 -9.53125 7.742188 -9.296875 8.703125 -8.828125 L 7.75 -6.4375 C 7.363281 -6.601562 7.003906 -6.738281 6.671875 -6.84375 C 6.335938 -6.945312 5.992188 -7 5.640625 -7 C 5.117188 -7 4.710938 -6.789062 4.421875 -6.375 C 4.140625 -5.96875 4 -5.394531 4 -4.65625 C 4 -3.15625 4.550781 -2.40625 5.65625 -2.40625 C 6.601562 -2.40625 7.515625 -2.679688 8.390625 -3.234375 L 8.390625 -0.65625 C 7.554688 -0.101562 6.554688 0.171875 5.390625 0.171875 Z M 5.390625 0.171875 "/></g></g></g><g fill="#8c52ff" fill-opacity="1"><g transform="translate(155.179985, 37.00885)"><g><path d="M 5.640625 0.171875 C 4.078125 0.171875 2.863281 -0.242188 2 -1.078125 C 1.144531 -1.910156 0.71875 -3.09375 0.71875 -4.625 C 0.71875 -6.207031 1.113281 -7.421875 1.90625 -8.265625 C 2.707031 -9.109375 3.847656 -9.53125 5.328125 -9.53125 C 6.742188 -9.53125 7.835938 -9.160156 8.609375 -8.421875 C 9.378906 -7.691406 9.765625 -6.632812 9.765625 -5.25 L 9.765625 -3.8125 L 3.984375 -3.8125 C 4.003906 -3.289062 4.191406 -2.878906 4.546875 -2.578125 C 4.910156 -2.285156 5.40625 -2.140625 6.03125 -2.140625 C 6.59375 -2.140625 7.113281 -2.191406 7.59375 -2.296875 C 8.070312 -2.398438 8.585938 -2.582031 9.140625 -2.84375 L 9.140625 -0.515625 C 8.640625 -0.253906 8.117188 -0.078125 7.578125 0.015625 C 7.035156 0.117188 6.390625 0.171875 5.640625 0.171875 Z M 5.453125 -7.328125 C 5.066406 -7.328125 4.742188 -7.207031 4.484375 -6.96875 C 4.234375 -6.726562 4.085938 -6.351562 4.046875 -5.84375 L 6.828125 -5.84375 C 6.816406 -6.300781 6.6875 -6.660156 6.4375 -6.921875 C 6.195312 -7.191406 5.867188 -7.328125 5.453125 -7.328125 Z M 5.453125 -7.328125 "/></g></g></g><g clip-path="url(#id1)"><path fill="#8c52ff" d="M 55.609375 4.804688 L 46.394531 4.804688 C 46.933594 5.863281 47.292969 7.050781 47.425781 8.316406 C 47.910156 8.535156 48.253906 9.015625 48.253906 9.574219 C 48.253906 10.15625 47.890625 10.652344 47.375 10.859375 C 47.210938 10.921875 47.03125 10.960938 46.84375 10.960938 C 46.609375 10.960938 46.394531 10.90625 46.199219 10.808594 C 45.746094 10.578125 45.433594 10.113281 45.433594 9.574219 C 45.433594 9.089844 45.6875 8.664062 46.074219 8.417969 C 45.933594 7.085938 45.503906 5.851562 44.855469 4.804688 L 33.386719 4.804688 C 32.738281 5.851562 32.308594 7.085938 32.167969 8.421875 C 32.546875 8.671875 32.800781 9.09375 32.800781 9.574219 C 32.800781 10.113281 32.488281 10.578125 32.035156 10.808594 C 31.839844 10.90625 31.621094 10.960938 31.390625 10.960938 C 31.203125 10.960938 31.023438 10.921875 30.859375 10.859375 C 30.34375 10.652344 29.980469 10.15625 29.980469 9.574219 C 29.980469 9.011719 30.324219 8.527344 30.820312 8.3125 C 30.949219 7.050781 31.304688 5.863281 31.847656 4.800781 L 22.617188 4.800781 L 21.488281 35.21875 C 21.488281 36.441406 22.5 37.4375 23.75 37.4375 L 54.480469 37.4375 C 55.730469 37.4375 56.742188 36.441406 56.742188 35.21875 Z M 55.609375 4.804688 " fill-opacity="1" fill-rule="nonzero"/></g><g clip-path="url(#id2)"><path fill="#8c52ff" d="M 30.941406 9.351562 L 30.945312 9.375 C 30.957031 9.632812 31.175781 9.839844 31.4375 9.839844 C 31.703125 9.839844 31.917969 9.636719 31.933594 9.375 L 31.9375 9.3125 C 31.96875 4.847656 35.179688 1.222656 39.121094 1.222656 C 43.070312 1.222656 46.285156 4.859375 46.304688 9.339844 L 46.308594 9.375 C 46.320312 9.632812 46.539062 9.839844 46.804688 9.839844 C 47.066406 9.839844 47.285156 9.632812 47.300781 9.375 L 47.300781 9.332031 C 47.273438 4.316406 43.609375 0.242188 39.121094 0.242188 C 34.628906 0.242188 30.960938 4.324219 30.941406 9.339844 Z M 30.941406 9.351562 " fill-opacity="1" fill-rule="nonzero"/></g><g fill="#8c52ff" fill-opacity="1"><g transform="translate(57.512327, 25.956427)"><g><path d="M 20.5 -11.15625 C 20.5 -7.582031 19.515625 -4.828125 17.546875 -2.890625 C 15.578125 -0.960938 12.8125 0 9.25 0 L 2.3125 0 L 2.3125 -21.421875 L 9.734375 -21.421875 C 13.171875 -21.421875 15.820312 -20.539062 17.6875 -18.78125 C 19.5625 -17.019531 20.5 -14.476562 20.5 -11.15625 Z M 14.484375 -10.953125 C 14.484375 -12.921875 14.09375 -14.378906 13.3125 -15.328125 C 12.539062 -16.273438 11.363281 -16.75 9.78125 -16.75 L 8.09375 -16.75 L 8.09375 -4.75 L 9.390625 -4.75 C 11.148438 -4.75 12.4375 -5.257812 13.25 -6.28125 C 14.070312 -7.300781 14.484375 -8.859375 14.484375 -10.953125 Z M 14.484375 -10.953125 "/></g></g><g transform="translate(79.528926, 25.956427)"><g><path d="M 15.03125 0 L 2.3125 0 L 2.3125 -21.421875 L 15.03125 -21.421875 L 15.03125 -16.765625 L 8.09375 -16.765625 L 8.09375 -13.40625 L 14.515625 -13.40625 L 14.515625 -8.765625 L 8.09375 -8.765625 L 8.09375 -4.71875 L 15.03125 -4.71875 Z M 15.03125 0 "/></g></g><g transform="translate(95.993769, 25.956427)"><g><path d="M 14.34375 -21.421875 L 20.8125 -21.421875 L 13.796875 0 L 6.984375 0 L 0 -21.421875 L 6.5 -21.421875 L 9.421875 -10.5625 C 10.023438 -8.144531 10.359375 -6.460938 10.421875 -5.515625 C 10.484375 -6.203125 10.617188 -7.054688 10.828125 -8.078125 C 11.035156 -9.109375 11.21875 -9.914062 11.375 -10.5 Z M 14.34375 -21.421875 "/></g></g><g transform="translate(116.809197, 25.956427)"><g><path d="M 1.265625 -2.4375 C 1.265625 -3.332031 1.53125 -4.023438 2.0625 -4.515625 C 2.59375 -5.003906 3.363281 -5.25 4.375 -5.25 C 5.34375 -5.25 6.085938 -5.003906 6.609375 -4.515625 C 7.128906 -4.023438 7.390625 -3.332031 7.390625 -2.4375 C 7.390625 -1.550781 7.117188 -0.863281 6.578125 -0.375 C 6.046875 0.113281 5.3125 0.359375 4.375 0.359375 C 3.414062 0.359375 2.65625 0.117188 2.09375 -0.359375 C 1.539062 -0.847656 1.265625 -1.539062 1.265625 -2.4375 Z M 1.265625 -2.4375 "/></g></g><g transform="translate(125.481071, 25.956427)"><g><path d="M 8.015625 0 L 2.3125 0 L 2.3125 -21.421875 L 14.96875 -21.421875 L 14.96875 -16.765625 L 8.015625 -16.765625 L 8.015625 -12.6875 L 14.421875 -12.6875 L 14.421875 -8.046875 L 8.015625 -8.046875 Z M 8.015625 0 "/></g></g></g></svg>